<svg width="386" height="394" viewBox="0 0 386 394" fill="none" xmlns="http://www.w3.org/2000/svg">
<path d="M171.486 8.46167C181.236 -2.59057 198.382 -2.85351 208.466 7.89428L216.483 16.4382C223.64 24.067 234.791 26.4324 244.43 22.3669L255.226 17.8132C268.805 12.0856 284.367 19.2886 288.789 33.3474L292.305 44.5232C295.444 54.5021 304.464 61.4717 314.912 61.991L326.614 62.573C341.334 63.3044 352.231 76.5452 350.115 91.1306L348.434 102.725C346.932 113.078 352.035 123.271 361.223 128.272L371.514 133.874C384.459 140.919 388.53 157.577 380.296 169.8L373.75 179.517C367.905 188.193 368.08 199.59 374.189 208.083L381.03 217.594C389.636 229.559 386.077 246.333 373.355 253.773L363.241 259.688C354.211 264.969 349.424 275.314 351.242 285.616L353.278 297.153C355.841 311.667 345.357 325.237 330.666 326.42L318.987 327.36C308.56 328.2 299.759 335.443 296.928 345.513L293.757 356.793C289.769 370.981 274.435 378.657 260.686 373.349L249.755 369.13C239.996 365.362 228.923 368.069 222.003 375.914L214.252 384.7C204.503 395.752 187.357 396.016 177.273 385.268L169.256 376.723C162.098 369.095 150.947 366.729 141.309 370.795L130.513 375.348C116.933 381.076 101.372 373.874 96.9494 359.815L93.4338 348.638C90.2948 338.659 81.2744 331.69 70.8263 331.171L59.1242 330.59C44.4045 329.858 33.5079 316.617 35.6232 302.032L37.3049 290.436C38.8065 280.084 33.704 269.89 24.5158 264.889L14.2248 259.289C1.27997 252.243 -2.79189 235.585 5.44255 223.362L11.9884 213.645C17.8333 204.969 17.6584 193.571 11.55 185.079L4.70817 175.567C-3.89734 163.603 -0.338267 146.828 12.384 139.388L22.4972 133.474C31.5276 128.194 36.3151 117.848 34.4963 107.547L32.4591 96.0085C29.8968 81.495 40.382 67.9259 55.0724 66.7429L66.7511 65.8025C77.1783 64.9626 85.9797 57.7188 88.8107 47.6482L91.9816 36.3689C95.9702 22.1811 111.304 14.5044 125.053 19.8123L135.984 24.033C145.743 27.8004 156.815 25.0928 163.736 17.2478L171.486 8.46167ZM244.635 189.744C222.518 189.744 204.588 207.673 204.588 229.79C204.588 251.907 222.518 269.837 244.635 269.837C266.752 269.837 284.682 251.907 284.682 229.79C284.682 207.673 266.752 189.744 244.635 189.744ZM251.503 126.935C247.284 123.371 240.974 123.902 237.41 128.121L133.489 251.128C129.925 255.346 130.456 261.656 134.675 265.22C138.894 268.784 145.203 268.253 148.767 264.035L252.689 141.028C256.253 136.809 255.722 130.5 251.503 126.935ZM244.635 214.283C253.199 214.283 260.142 221.226 260.142 229.79C260.142 238.354 253.199 245.297 244.635 245.298C236.071 245.298 229.127 238.354 229.127 229.79C229.127 221.226 236.071 214.283 244.635 214.283ZM139.528 122.481C117.412 122.481 99.4818 140.411 99.4816 162.528C99.4816 184.645 117.411 202.575 139.528 202.575C161.646 202.575 179.575 184.645 179.575 162.528C179.575 140.411 161.645 122.481 139.528 122.481ZM139.528 147.021C148.093 147.021 155.035 153.964 155.035 162.528C155.035 171.092 148.093 178.036 139.528 178.036C130.964 178.036 124.021 171.092 124.021 162.528C124.021 153.964 130.964 147.021 139.528 147.021Z" fill="black"/>
</svg>
